<svg width="20" height="21" viewBox="0 0 20 21" fill="none" xmlns="http://www.w3.org/2000/svg">
<path fill-rule="evenodd" clip-rule="evenodd" d="M10.0003 7.37504C8.27444 7.37504 6.87533 8.77415 6.87533 10.5C6.87533 12.2259 8.27444 13.625 10.0003 13.625C11.7262 13.625 13.1253 12.2259 13.1253 10.5C13.1253 8.77415 11.7262 7.37504 10.0003 7.37504ZM8.12533 10.5C8.12533 9.46451 8.96479 8.62504 10.0003 8.62504C11.0359 8.62504 11.8753 9.46451 11.8753 10.5C11.8753 11.5356 11.0359 12.375 10.0003 12.375C8.96479 12.375 8.12533 11.5356 8.12533 10.5Z" fill="#5D6878"/>
<path fill-rule="evenodd" clip-rule="evenodd" d="M10.0003 3.20837C6.23855 3.20837 3.70474 5.46187 2.23413 7.37243L2.20761 7.40687C1.87502 7.83882 1.56871 8.23664 1.3609 8.70704C1.13836 9.21077 1.04199 9.75978 1.04199 10.5C1.04199 11.2403 1.13836 11.7893 1.3609 12.293C1.56871 12.7634 1.87503 13.1613 2.20761 13.5932L2.23413 13.6277C3.70474 15.5382 6.23855 17.7917 10.0003 17.7917C13.7621 17.7917 16.2959 15.5382 17.7665 13.6277L17.793 13.5932C18.1256 13.1613 18.4319 12.7634 18.6398 12.293C18.8623 11.7893 18.9587 11.2403 18.9587 10.5C18.9587 9.75978 18.8623 9.21077 18.6398 8.70704C18.4319 8.23663 18.1256 7.83881 17.793 7.40685L17.7665 7.37243C16.2959 5.46187 13.7621 3.20837 10.0003 3.20837ZM3.22467 8.13487C4.58252 6.37081 6.79229 4.45837 10.0003 4.45837C13.2084 4.45837 15.4181 6.37081 16.776 8.13487C17.1415 8.6097 17.3555 8.89342 17.4964 9.21216C17.628 9.51005 17.7087 9.87415 17.7087 10.5C17.7087 11.1259 17.628 11.49 17.4964 11.7879C17.3555 12.1067 17.1415 12.3904 16.776 12.8652C15.4181 14.6293 13.2084 16.5417 10.0003 16.5417C6.79229 16.5417 4.58252 14.6293 3.22467 12.8652C2.85919 12.3904 2.64511 12.1067 2.50429 11.7879C2.37269 11.49 2.29199 11.1259 2.29199 10.5C2.29199 9.87415 2.37269 9.51005 2.50429 9.21216C2.6451 8.89342 2.85919 8.6097 3.22467 8.13487Z" fill="#5D6878"/>
</svg>
