<svg width="20" height="21" viewBox="0 0 20 21" fill="none" xmlns="http://www.w3.org/2000/svg">
<path fill-rule="evenodd" clip-rule="evenodd" d="M18.5793 5.75882C18.8966 5.8948 19.0435 6.26222 18.9076 6.57949L18.3331 6.33329C18.9076 6.57949 18.9076 6.57934 18.9076 6.57949L18.907 6.58089L18.9061 6.58296L18.9034 6.58909L18.8945 6.60916C18.887 6.62594 18.8764 6.64945 18.8625 6.67918C18.8348 6.73864 18.7942 6.82308 18.7405 6.92842C18.6331 7.13896 18.4728 7.43386 18.2569 7.78034C17.9022 8.34954 17.3935 9.06467 16.7181 9.77511L17.525 10.582C17.7691 10.8261 17.7691 11.2219 17.525 11.4659C17.281 11.71 16.8852 11.71 16.6412 11.4659L15.8073 10.6321C15.2576 11.0927 14.6272 11.525 13.9124 11.8801L14.6903 13.0758C14.8786 13.3651 14.7966 13.7522 14.5073 13.9405C14.218 14.1287 13.8308 14.0468 13.6426 13.7575L12.7349 12.3626C12.0855 12.5747 11.3823 12.7188 10.6248 12.7705V14.25C10.6248 14.5951 10.345 14.875 9.99977 14.875C9.6546 14.875 9.37477 14.5951 9.37477 14.25V12.7705C8.64058 12.7204 7.95742 12.5835 7.32469 12.382L6.42963 13.7575C6.24137 14.0469 5.85422 14.1288 5.5649 13.9405C5.27558 13.7523 5.19364 13.3651 5.3819 13.0758L6.14224 11.9073C5.42192 11.5555 4.78635 11.1251 4.23186 10.6652L3.43104 11.466C3.18696 11.7101 2.79123 11.7101 2.54716 11.466C2.30308 11.2219 2.30308 10.8262 2.54716 10.5821L3.31696 9.8123C2.62983 9.09589 2.11255 8.37209 1.75215 7.79551C1.53304 7.44499 1.37033 7.14633 1.26141 6.93303C1.2069 6.82631 1.16576 6.74074 1.13765 6.68049C1.12359 6.65035 1.11278 6.62652 1.10518 6.60952L1.09619 6.5892L1.09349 6.583L1.09258 6.5809L1.09224 6.58011C1.09218 6.57996 1.09197 6.57949 1.66644 6.33329L1.09224 6.58011C0.956269 6.26284 1.10297 5.8948 1.42024 5.75882C1.73725 5.62296 2.10433 5.76958 2.24057 6.08631C2.24052 6.0862 2.24062 6.08642 2.24057 6.08631L2.24137 6.08813L2.24643 6.09956C2.25134 6.11056 2.25933 6.12821 2.27044 6.15202C2.29266 6.19966 2.32731 6.27183 2.37464 6.36452C2.46938 6.55004 2.61452 6.81685 2.81211 7.13296C3.20844 7.76702 3.80948 8.5892 4.62951 9.35128C5.35109 10.0219 6.23533 10.6396 7.29288 11.0465C8.08829 11.3525 8.98765 11.5416 9.99977 11.5416C11.0345 11.5416 11.9515 11.3439 12.7602 11.0256C13.8113 10.6119 14.6896 9.99016 15.4054 9.31828C16.2133 8.55993 16.8055 7.74592 17.196 7.11929C17.3906 6.80688 17.5336 6.54351 17.627 6.36051C17.6736 6.26909 17.7077 6.19793 17.7296 6.15099C17.7405 6.12753 17.7484 6.11015 17.7532 6.09932L17.7582 6.08809L17.7586 6.08709C17.7586 6.08717 17.7587 6.08701 17.7586 6.08709M18.5793 5.75882C18.2621 5.62289 17.8947 5.76999 17.7586 6.08709L18.5793 5.75882ZM2.24057 6.08631C2.24052 6.0862 2.24062 6.08642 2.24057 6.08631V6.08631Z" fill="#5D6878"/>
</svg>
