<svg width="24" height="24" viewBox="0 0 24 24" fill="none" xmlns="http://www.w3.org/2000/svg">
<rect width="24" height="24" rx="8" fill="#4D37A5"/>
<g clip-path="url(#clip0_1_3194)">
<path d="M18.6668 11.7114C18.6668 15.2334 15.6815 18.0887 12.0002 18.0887C11.5659 18.0892 11.1359 18.0496 10.7102 17.97C10.4042 17.912 10.2515 17.8834 10.1448 17.9C10.0382 17.916 9.88616 17.9967 9.5835 18.1574C8.72106 18.6167 7.7287 18.771 6.7675 18.5954C7.13466 18.1415 7.38364 17.6037 7.49216 17.03C7.55883 16.6767 7.3935 16.3334 7.1455 16.082C6.02283 14.9407 5.3335 13.4034 5.3335 11.7114C5.3335 8.18937 8.31883 5.33337 12.0002 5.33337C15.6815 5.33337 18.6668 8.18937 18.6668 11.7114Z" stroke="white" stroke-width="1.25" stroke-linecap="round" stroke-linejoin="round"/>
<path d="M10.667 10.564C10.667 9.88404 11.2637 9.33337 12.0003 9.33337C12.737 9.33337 13.3337 9.88471 13.3337 10.564C13.3337 10.8094 13.2563 11.0374 13.1223 11.2294C12.7237 11.8 12.0003 12.346 12.0003 13.026V13.3334M12.0003 15H12.0063" stroke="white" stroke-width="1.25" stroke-linecap="round" stroke-linejoin="round"/>
</g>
<defs>
<clipPath id="clip0_1_3194">
<rect width="16" height="16" fill="white" transform="translate(4 4)"/>
</clipPath>
</defs>
</svg>
