<svg width="16" height="16" viewBox="0 0 16 16" fill="none" xmlns="http://www.w3.org/2000/svg">
<path fill-rule="evenodd" clip-rule="evenodd" d="M7.99598 1.33337C11.6757 1.33337 14.6665 4.32565 14.6665 8.00004C14.6665 11.6744 11.6757 14.6667 7.99598 14.6667C4.324 14.6667 1.33317 11.6744 1.33317 8.00004C1.33317 4.32565 4.32401 1.33337 7.99598 1.33337ZM7.32127 10.4453C7.39202 10.5161 7.50137 10.6062 7.52709 10.6255C7.66216 10.7285 7.82939 10.78 7.99598 10.78C8.18315 10.78 8.35681 10.722 8.49831 10.6127C8.50727 10.6037 8.52637 10.5861 8.55127 10.5633C8.59786 10.5205 8.66474 10.459 8.72343 10.4003C9.28943 9.87263 10.2156 8.49554 10.4986 7.77482C10.543 7.66542 10.6401 7.38872 10.6466 7.24071C10.6466 7.09914 10.6144 6.96401 10.5501 6.83531C10.46 6.67443 10.3185 6.54573 10.1513 6.47494C10.0355 6.4299 9.68821 6.35911 9.68178 6.35911C9.3023 6.28833 8.68484 6.24972 8.00305 6.24972C7.35279 6.24972 6.7617 6.28833 6.37578 6.34624C6.37419 6.34784 6.34659 6.35337 6.30371 6.36197C6.17336 6.38811 5.9018 6.44258 5.79048 6.50068C5.52034 6.64225 5.35311 6.91896 5.35311 7.21497L5.35311 7.24071C5.35954 7.43376 5.52677 7.83917 5.5332 7.83917C5.81621 8.52128 6.69738 9.86619 7.28268 10.4067L7.32127 10.4453Z" fill="white"/>
</svg>
